<?xml version="1.0" encoding="UTF-8" standalone="no"?>
<!-- Created with Inkscape (http://www.inkscape.org/) -->

<svg
   xmlns:dc="http://purl.org/dc/elements/1.1/"
   xmlns:cc="http://creativecommons.org/ns#"
   xmlns:rdf="http://www.w3.org/1999/02/22-rdf-syntax-ns#"
   xmlns:svg="http://www.w3.org/2000/svg"
   xmlns="http://www.w3.org/2000/svg"
   xmlns:sodipodi="http://sodipodi.sourceforge.net/DTD/sodipodi-0.dtd"
   xmlns:inkscape="http://www.inkscape.org/namespaces/inkscape"
   width="191.0051mm"
   height="87.964165mm"
   viewBox="0 0 191.0051 87.964165"
   version="1.1"
   id="svg4214"
   inkscape:version="0.92.2 (5c3e80d, 2017-08-06)"
   sodipodi:docname="StoryBB.svg">
  <defs
     id="defs4208">
    <clipPath
       clipPathUnits="userSpaceOnUse"
       id="clipPath3715">
      <path
         d="M 0,1200 H 1600 V 0 H 0 Z"
         id="path3713"
         inkscape:connector-curvature="0" />
    </clipPath>
  </defs>
  <sodipodi:namedview
     id="base"
     pagecolor="#ffffff"
     bordercolor="#666666"
     borderopacity="1.0"
     inkscape:pageopacity="0.0"
     inkscape:pageshadow="2"
     inkscape:zoom="0.24748737"
     inkscape:cx="-793.06269"
     inkscape:cy="328.83525"
     inkscape:document-units="mm"
     inkscape:current-layer="layer1"
     showgrid="false"
     objecttolerance="10000"
     fit-margin-top="0"
     fit-margin-left="0"
     fit-margin-right="0"
     fit-margin-bottom="0"
     inkscape:window-width="1920"
     inkscape:window-height="1017"
     inkscape:window-x="-8"
     inkscape:window-y="-8"
     inkscape:window-maximized="1" />
  <metadata
     id="metadata4211">
    <rdf:RDF>
      <cc:Work
         rdf:about="">
        <dc:format>image/svg+xml</dc:format>
        <dc:type
           rdf:resource="http://purl.org/dc/dcmitype/StillImage" />
        <dc:title></dc:title>
      </cc:Work>
    </rdf:RDF>
  </metadata>
  <g
     inkscape:label="Layer 1"
     inkscape:groupmode="layer"
     id="layer1"
     transform="translate(-8.0276365,-6.9573306)">
    <g
       transform="matrix(0.35277777,0,0,-0.35277777,-186.44185,265.07909)"
       id="g3709">
      <g
         id="g3711"
         clip-path="url(#clipPath3715)">
        <g
           id="g3717"
           transform="translate(560.998,580.3975)">
          <path
             d="m 0,0 c 6.242,-3.197 15.834,-6.394 25.73,-6.394 10.658,0 16.291,4.415 16.291,11.115 0,6.393 -4.873,10.049 -17.205,14.463 C 7.764,25.122 -3.35,34.562 -3.35,49.482 c 0,17.509 14.616,30.907 38.824,30.907 11.571,0 20.097,-2.436 26.188,-5.177 L 56.484,56.486 c -4.11,1.979 -11.418,4.872 -21.466,4.872 -10.049,0 -14.921,-4.568 -14.921,-9.897 0,-6.546 5.785,-9.439 19.031,-14.463 18.118,-6.7 26.644,-16.139 26.644,-30.602 0,-17.206 -13.246,-31.822 -41.412,-31.822 -11.724,0 -23.295,3.046 -29.08,6.242 z"
             style="fill:#f7931d;fill-opacity:1;fill-rule:nonzero;stroke:none"
             id="path3719"
             inkscape:connector-curvature="0" />
        </g>
        <g
           id="g3721"
           transform="translate(666.8154,652.2607)">
          <path
             d="M 0,0 V -21.315 H 16.595 V -38.367 H 0 v -26.949 c 0,-8.983 2.131,-13.093 9.135,-13.093 2.893,0 5.177,0.304 6.851,0.608 l 0.152,-17.508 c -3.045,-1.218 -8.526,-1.98 -15.073,-1.98 -7.46,0 -13.702,2.589 -17.357,6.395 -4.262,4.415 -6.394,11.572 -6.394,22.077 v 30.45 h -9.896 v 17.052 h 9.896 v 16.138 z"
             style="fill:#f7931d;fill-opacity:1;fill-rule:nonzero;stroke:none"
             id="path3723"
             inkscape:connector-curvature="0" />
        </g>
        <g
           id="g3725"
           transform="translate(715.6895,593.7969)">
          <path
             d="m 0,0 c 0,-12.789 5.329,-22.382 15.225,-22.382 8.983,0 14.768,8.983 14.768,22.382 0,11.114 -4.263,22.38 -14.768,22.38 C 4.11,22.38 0,10.961 0,0 m 53.896,0.761 c 0,-27.253 -19.335,-39.738 -39.28,-39.738 -21.772,0 -38.52,14.312 -38.52,38.368 0,24.055 15.835,39.432 39.738,39.432 22.838,0 38.062,-15.681 38.062,-38.062"
             style="fill:#f7931d;fill-opacity:1;fill-rule:nonzero;stroke:none"
             id="path3727"
             inkscape:connector-curvature="0" />
        </g>
        <g
           id="g3729"
           transform="translate(783.8999,606.4331)">
          <path
             d="M 0,0 C 0,10.962 -0.305,18.118 -0.609,24.512 H 19.336 L 20.097,10.81 h 0.61 c 3.805,10.81 12.941,15.377 20.096,15.377 2.132,0 3.197,0 4.872,-0.305 V 4.111 C 44,4.416 42.021,4.72 39.433,4.72 30.907,4.72 25.122,0.152 23.598,-7.003 c -0.305,-1.523 -0.456,-3.35 -0.456,-5.176 V -49.938 H 0 Z"
             style="fill:#f7931d;fill-opacity:1;fill-rule:nonzero;stroke:none"
             id="path3731"
             inkscape:connector-curvature="0" />
        </g>
        <g
           id="g3733"
           transform="translate(861.8496,630.9453)">
          <path
             d="m 0,0 11.115,-36.54 c 1.218,-4.415 2.741,-9.896 3.655,-13.855 h 0.457 c 1.065,3.959 2.283,9.591 3.348,13.855 L 27.711,0 H 52.527 L 35.171,-49.024 C 24.514,-78.562 17.357,-90.437 8.984,-97.897 c -8.07,-7.003 -16.596,-9.44 -22.381,-10.201 l -4.873,19.64 c 2.894,0.457 6.547,1.827 10.049,3.959 3.502,1.827 7.308,5.48 9.592,9.287 0.761,1.066 1.218,2.284 1.218,3.351 0,0.759 -0.152,1.978 -1.066,3.805 L -25.729,0 Z"
             style="fill:#f7931d;fill-opacity:1;fill-rule:nonzero;stroke:none"
             id="path3735"
             inkscape:connector-curvature="0" />
        </g>
        <g
           id="g3737"
           transform="translate(1005.9502,608.4883)">
          <path
             d="m 0,0 c -0.057,1.449 0.218,3.115 0.373,4.782 0.356,3.823 0.648,7.658 1.286,11.452 0.1,0.599 0.014,1.223 0.197,1.816 0.054,0.176 0.1,0.377 0.312,0.41 0.212,0.033 0.347,-0.13 0.412,-0.3 0.373,-0.957 1.048,-0.752 1.732,-0.452 0.577,0.252 0.872,0.219 0.755,-0.537 C 4.465,13.25 4.11,9.298 3.689,5.356 3.538,3.931 3.452,2.499 3.38,1.067 3.354,0.542 3.27,0.037 3.141,-0.465 2.856,-1.576 2.307,-1.988 1.25,-1.895 0.487,-1.828 0.126,-1.341 0,0"
             style="fill:#414142;fill-opacity:1;fill-rule:evenodd;stroke:none"
             id="path3739"
             inkscape:connector-curvature="0" />
        </g>
        <g
           id="g3741"
           transform="translate(1073.3574,726.5117)">
          <path
             d="m 0,0 c -1.714,3.397 -4.846,5.004 -8.525,5.157 -3.919,0.162 -7.6,-0.995 -11.007,-2.958 -3.349,-1.929 -6.428,-4.229 -9.345,-6.755 -1.04,-0.899 -1.964,-1.844 -1.9,-3.367 0.047,-1.193 0.089,-2.376 0.521,-3.516 0.307,-0.806 0.534,-1.64 0.82,-2.526 -0.468,0.042 -0.55,0.301 -0.667,0.498 -0.844,1.424 -1.595,2.888 -1.951,4.524 -0.063,0.289 -0.032,0.689 -0.37,0.783 -0.337,0.094 -0.523,-0.269 -0.722,-0.48 -0.402,-0.428 -0.801,-0.86 -1.203,-1.29 l -8.269,-9.637 c -0.625,-0.801 -1.254,-1.598 -1.866,-2.409 -0.925,-1.226 -0.872,-1.293 -0.041,-2.565 1.382,-2.116 2.898,-4.169 3.508,-6.694 0.154,-0.631 0.376,-1.363 -0.276,-1.759 -0.603,-0.365 -1.076,0.244 -1.497,0.608 -1.616,1.39 -2.777,3.157 -3.981,4.887 -0.729,1.047 -0.871,1.04 -1.587,0.019 -2.299,-3.28 -4.4,-6.683 -6.425,-10.137 -0.35,-0.595 -0.509,-1.145 -0.393,-1.814 0.096,-0.545 0.21,-1.078 0.408,-1.595 0.781,-2.028 1.631,-4.019 2.831,-5.844 0.124,-0.189 0.408,-0.403 0.172,-0.636 -0.235,-0.232 -0.525,-0.046 -0.75,0.104 -0.536,0.359 -1.01,0.788 -1.443,1.267 -0.964,1.071 -1.821,2.218 -2.578,3.445 -0.28,0.454 -0.65,0.895 -1.047,0.107 -1.21,-2.4 -2.464,-4.782 -3.572,-7.23 -2.042,-4.51 -3.776,-9.143 -5.215,-13.885 -0.242,-0.799 -0.179,-1.414 0.497,-1.953 0.929,-0.742 1.474,-1.781 2.037,-2.795 0.129,-0.232 0.305,-0.542 0.041,-0.75 -0.252,-0.196 -0.438,0.114 -0.615,0.255 -0.606,0.474 -1.242,0.876 -1.966,1.157 -0.698,0.27 -1.09,0.155 -1.244,-0.643 -0.249,-1.287 -0.519,-2.575 -0.859,-3.841 -0.218,-0.814 -0.012,-1.232 0.797,-1.515 1.672,-0.587 3.081,-1.61 4.305,-2.88 0.216,-0.225 0.619,-0.49 0.403,-0.834 -0.211,-0.339 -0.626,-0.102 -0.931,-0.021 -1.417,0.377 -2.828,0.769 -4.237,1.178 -0.665,0.193 -1.005,-0.073 -1.081,-0.711 -0.066,-0.574 -0.047,-1.159 -0.124,-1.731 -0.57,-4.212 -0.601,-8.416 0.409,-12.564 0.486,-1.999 1.304,-3.881 2.975,-5.251 0.894,-0.733 1.222,-0.652 1.442,0.471 0.299,1.524 0.453,3.085 0.852,4.582 0.873,3.273 1.763,6.542 2.77,9.78 1.866,6.01 3.768,12.001 6.169,17.829 2.143,5.21 4.633,10.245 7.439,15.12 3.585,6.232 7.688,12.108 12.157,17.751 4.697,5.931 9.849,11.426 15.219,16.734 0.327,0.323 0.679,0.619 1.119,0.783 0.235,0.088 0.489,0.164 0.687,-0.047 0.226,-0.245 0.127,-0.521 -0.034,-0.757 -0.119,-0.175 -0.27,-0.332 -0.426,-0.477 -3.495,-3.25 -6.711,-6.762 -9.837,-10.364 -2.787,-3.209 -5.411,-6.546 -7.891,-9.992 -2.802,-3.894 -5.383,-7.933 -7.781,-12.094 -3.041,-5.277 -5.743,-10.712 -8.045,-16.347 -1.95,-4.78 -3.663,-9.642 -5.158,-14.587 -1.389,-4.591 -2.707,-9.193 -3.716,-13.881 -0.386,-1.789 -0.767,-3.58 -0.964,-5.406 -0.043,-0.412 0.059,-0.712 0.33,-0.989 0.152,-0.155 0.256,-0.036 0.39,0.043 1.313,0.777 2.631,1.523 3.68,2.686 2.129,2.358 3.744,5.039 5.199,7.842 0.914,1.759 0.445,2.979 -1.478,3.525 -0.271,0.078 -0.678,-0.043 -0.746,0.377 -0.055,0.327 0.141,0.587 0.395,0.781 0.317,0.241 0.641,0.154 0.94,-0.035 0.498,-0.312 0.902,-0.722 1.242,-1.204 0.683,-0.967 0.837,-0.961 1.362,0.134 0.91,1.9 1.791,3.813 2.687,5.719 1.689,3.595 3.414,7.174 5.291,10.676 0.46,0.858 0.395,1.598 -0.085,2.41 -0.889,1.502 -2.165,2.456 -3.837,2.911 -0.187,0.051 -0.496,0.034 -0.475,0.327 0.016,0.252 0.287,0.285 0.493,0.331 1.03,0.228 2.005,0.136 2.888,-0.495 0.75,-0.535 1.472,-1.106 2.042,-1.832 0.418,-0.533 0.73,-0.44 1.039,0.077 0.158,0.262 0.321,0.521 0.467,0.79 2.261,4.174 4.975,8.051 7.76,11.884 1.601,2.202 3.313,4.312 5.096,6.366 0.515,0.596 0.582,1.105 0.039,1.677 -0.231,0.244 -0.453,0.495 -0.695,0.728 -1.633,1.588 -3.482,2.874 -5.518,3.894 -0.199,0.099 -0.481,0.165 -0.439,0.544 0.699,0.148 1.38,0.042 2.052,-0.158 2.297,-0.682 4.473,-1.653 6.519,-2.89 0.71,-0.429 1.151,-0.287 1.643,0.281 2.937,3.396 5.895,6.774 8.83,10.171 0.72,0.834 0.682,1.025 -0.229,1.639 -1.735,1.172 -3.577,2.111 -5.65,2.542 -0.273,0.057 -0.734,0.03 -0.716,0.414 0.015,0.372 0.466,0.3 0.748,0.362 2.639,0.58 5.094,-0.036 7.438,-1.218 0.78,-0.393 1.316,-0.372 1.872,0.384 1.121,1.526 2.337,2.983 3.489,4.488 1.446,1.892 2.851,3.817 4.076,5.865 0.428,0.719 0.26,1.123 -0.513,1.057 -1.912,-0.161 -3.845,-0.183 -5.698,-0.813 -1.071,-0.365 -2.171,-0.642 -3.446,-1.013 0.402,0.742 0.907,1.04 1.37,1.371 2.534,1.812 5.356,3.035 8.291,4.022 3.256,1.095 3.281,1.086 4.211,4.303 C 1.129,-4.98 1.184,-2.348 0,0"
             style="fill:#414142;fill-opacity:1;fill-rule:evenodd;stroke:none"
             id="path3743"
             inkscape:connector-curvature="0" />
        </g>
        <g
           id="g3745"
           transform="translate(978.0195,618.4609)">
          <path
             d="m 0,0 h -7.612 c -12.18,0 -18.727,5.024 -18.727,12.637 0,7.765 5.939,11.875 16.443,11.875 5.024,0 7.917,-0.304 9.896,-0.609 z m 0,-45.522 c -2.283,-0.305 -5.024,-0.305 -8.982,-0.305 -10.505,0 -19.792,3.958 -19.792,14.767 0,10.353 9.287,14.464 20.858,14.464 H 0 Z m 9.38,4.059 c -0.166,6.566 3.611,8.531 5.992,9.117 v 0.162 c -0.003,1.357 -0.007,2.896 0.673,4.483 l 0.057,0.144 c 0.115,0.3 0.287,0.748 0.612,1.192 -0.828,1.796 -1.608,3.643 -2.361,5.431 l -0.102,0.241 c -0.644,1.521 -0.581,3.111 0.171,4.362 0.677,1.128 1.84,1.843 3.19,1.963 0.211,0.018 0.408,0.023 0.605,0.023 h 4.773 v 53.626 c -6.091,1.218 -18.422,2.131 -29.993,2.131 -14.159,0 -22.838,-1.37 -30.298,-5.786 -7.156,-3.806 -12.332,-10.809 -12.332,-20.096 0,-9.135 5.328,-17.662 16.9,-21.925 v -0.304 c -11.724,-3.197 -20.402,-12.028 -20.402,-25.274 0,-9.288 4.263,-16.594 10.657,-21.772 7.461,-5.938 19.946,-9.287 40.347,-9.287 5.153,0 9.711,0.156 13.644,0.396 -1.472,1.679 -2.236,4.114 -2.143,6.922 0.14,4.243 0.144,8.905 0.01,14.251"
             style="fill:#f7931d;fill-opacity:1;fill-rule:nonzero;stroke:none"
             id="path3747"
             inkscape:connector-curvature="0" />
        </g>
        <g
           id="g3749"
           transform="translate(1000.8809,579.8545)">
          <path
             d="M 0,0 C 0.042,-0.005 0.084,-0.01 0.126,-0.017 H 0.129 V 0.312 C 0.088,0.207 0.049,0.101 0,0"
             style="fill:#231f20;fill-opacity:1;fill-rule:nonzero;stroke:none"
             id="path3751"
             inkscape:connector-curvature="0" />
        </g>
        <g
           id="g3753"
           transform="translate(1047.9199,572.4062)">
          <path
             d="m 0,0 c -3.958,0 -6.699,0 -8.983,0.305 v 28.927 h 7.917 c 11.571,0 20.858,-4.111 20.858,-14.463 C 19.792,3.958 10.505,0 0,0 m -8.983,69.73 c 1.979,0.305 4.872,0.61 9.897,0.61 10.504,0 16.442,-4.111 16.442,-11.876 0,-7.612 -6.546,-12.636 -18.727,-12.636 H -8.983 Z M 23.751,39.128 v 0.305 c 11.571,4.263 16.899,12.789 16.899,21.924 0,9.287 -5.176,16.291 -12.332,20.097 -7.461,4.416 -16.138,5.786 -30.297,5.786 -4.1,0 -8.292,-0.117 -12.272,-0.319 -0.063,-0.796 -0.313,-1.489 -0.604,-2.032 -1.932,-3.602 -3.727,-7.354 -5.229,-10.55 l -0.945,-2.02 c -0.579,-1.24 -1.158,-2.481 -1.75,-3.716 -0.183,-0.383 -0.499,-1.041 -1.053,-1.568 -0.089,-0.623 -0.302,-1.321 -0.701,-2.089 -1.26,-2.425 -3.033,-5.574 -5.59,-8.405 -0.58,-0.643 -1.211,-1.168 -1.85,-1.633 V 31.709 h 5.014 c 0.196,0 0.395,-0.004 0.591,-0.021 1.364,-0.121 2.528,-0.836 3.205,-1.964 0.751,-1.251 0.813,-2.842 0.169,-4.365 l -0.146,-0.342 c -0.739,-1.753 -1.503,-3.564 -2.316,-5.326 0.325,-0.443 0.499,-0.896 0.615,-1.199 l 0.056,-0.145 c 0.678,-1.581 0.675,-3.121 0.672,-4.48 v -0.158 c 2.378,-0.586 6.156,-2.551 5.991,-9.117 -0.134,-5.317 -0.13,-9.978 0.01,-14.252 0.097,-2.934 -0.734,-5.469 -2.339,-7.152 3.924,-0.238 8.467,-0.392 13.599,-0.392 20.402,0 32.886,3.349 40.347,9.287 6.395,5.177 10.657,12.484 10.657,21.771 0,13.247 -8.678,22.077 -20.401,25.274"
             style="fill:#f7931d;fill-opacity:1;fill-rule:nonzero;stroke:none"
             id="path3755"
             inkscape:connector-curvature="0" />
        </g>
        <g
           id="g3757"
           transform="translate(1016.1895,579.8379)">
          <path
             d="m 0,0 c 0.043,0.007 0.086,0.012 0.128,0.017 -0.171,0.35 -0.286,0.733 -0.37,1.136 V 0.001 Z"
             style="fill:#231f20;fill-opacity:1;fill-rule:nonzero;stroke:none"
             id="path3759"
             inkscape:connector-curvature="0" />
        </g>
        <g
           id="g3761"
           transform="translate(1024.3457,577.7852)">
          <path
             d="m 0,0 c -0.113,-0.858 -0.738,-0.609 -1.175,-0.612 -2.054,-0.027 -4.111,-0.077 -6.163,0.016 -0.214,0.01 -0.409,-0.006 -0.589,-0.046 l -3.443,0.005 c -0.328,0.058 -0.66,0.123 -0.965,0.001 l -2.914,0.007 c -0.163,0.008 -0.33,0.012 -0.498,0.011 -0.167,0.001 -0.334,-0.003 -0.498,-0.011 l -2.913,-0.007 c -0.305,0.122 -0.637,0.057 -0.965,-0.001 l -3.444,-0.005 c -0.18,0.04 -0.375,0.056 -0.588,0.046 -2.053,-0.093 -4.11,-0.043 -6.164,-0.016 -0.437,0.003 -1.061,-0.246 -1.174,0.612 -0.116,0.875 0.131,1.672 0.787,2.101 0.738,0.48 1.537,0.56 2.352,0.555 2.712,-0.017 2.764,0.06 2.766,3.586 0,0.872 0.044,1.75 -0.011,2.618 -0.079,1.293 0.37,2.131 1.164,2.788 1.053,0.874 1.188,1.451 0.628,2.883 -0.62,1.585 -1.303,3.129 -1.956,4.692 -0.425,1.013 -0.378,1.147 0.519,1.153 3.081,0.014 6.164,0.007 9.246,0.007 h 0.251 0.251 c 3.081,0 6.165,0.007 9.246,-0.007 0.896,-0.006 0.944,-0.14 0.52,-1.153 -0.655,-1.563 -1.337,-3.107 -1.957,-4.692 -0.56,-1.432 -0.425,-2.009 0.627,-2.883 0.795,-0.657 1.244,-1.495 1.163,-2.788 C -5.95,7.992 -5.906,7.114 -5.905,6.242 -5.903,2.716 -5.854,2.639 -3.14,2.656 -2.324,2.661 -1.525,2.581 -0.787,2.101 -0.132,1.672 0.116,0.875 0,0 m 2.77,-15.128 c -0.159,4.795 -0.132,9.609 -0.011,14.408 0.108,4.336 -1.824,6.177 -4.586,6.558 -1.656,0.23 -1.398,0.71 -1.406,2.133 -0.009,1.345 0.073,2.705 -0.457,3.943 -0.135,0.315 -0.241,0.706 -0.45,0.899 -0.807,0.758 -0.687,1.548 -0.233,2.534 0.863,1.863 1.666,3.776 2.471,5.682 0.562,1.33 0.051,2.491 -1.117,2.595 -0.194,0.016 -0.389,0.011 -0.583,0.011 h -12.145 -12.146 c -0.194,0 -0.387,0.005 -0.583,-0.011 -1.167,-0.104 -1.678,-1.265 -1.116,-2.595 0.804,-1.906 1.608,-3.819 2.469,-5.682 0.455,-0.986 0.576,-1.776 -0.231,-2.534 -0.208,-0.193 -0.315,-0.584 -0.451,-0.899 -0.529,-1.238 -0.446,-2.598 -0.455,-3.943 -0.011,-1.423 0.248,-1.903 -1.408,-2.133 -2.761,-0.381 -4.694,-2.222 -4.585,-6.558 0.12,-4.799 0.149,-9.613 -0.011,-14.408 -0.131,-3.964 1.777,-6.641 5.024,-6.52 4.467,0.168 8.936,0.042 13.407,0.043 h 0.086 0.086 c 4.471,-0.001 8.941,0.125 13.407,-0.043 3.246,-0.121 5.154,2.556 5.024,6.52"
             style="fill:#414142;fill-opacity:1;fill-rule:nonzero;stroke:none"
             id="path3763"
             inkscape:connector-curvature="0" />
        </g>
        <g
           id="g3765"
           transform="translate(567.4561,503.9863)">
          <path
             d="M 0,0 -2.272,7.115 C -2.829,8.873 -3.3,10.844 -3.729,12.517 H -3.815 C -4.244,10.844 -4.672,8.83 -5.187,7.115 L -7.416,0 Z m -8.273,-3.987 -2.487,-8.188 h -5.444 l 9.26,28.893 h 6.73 L 9.174,-12.175 H 3.516 L 0.9,-3.987 Z"
             style="fill:#414142;fill-opacity:1;fill-rule:nonzero;stroke:none"
             id="path3767"
             inkscape:connector-curvature="0" />
        </g>
        <g
           id="g3769"
           transform="translate(589.3159,505.957)">
          <path
             d="M 0,0 C 0,2.83 -0.042,4.844 -0.171,6.73 H 4.416 L 4.587,2.745 h 0.171 c 1.03,2.957 3.472,4.458 5.702,4.458 0.514,0 0.814,-0.044 1.243,-0.129 V 2.101 C 11.274,2.186 10.803,2.272 10.16,2.272 7.631,2.272 5.916,0.643 5.444,-1.714 5.359,-2.186 5.273,-2.743 5.273,-3.343 V -14.146 H 0 Z"
             style="fill:#f7931d;fill-opacity:1;fill-rule:nonzero;stroke:none"
             id="path3771"
             inkscape:connector-curvature="0" />
        </g>
        <g
           id="g3773"
           transform="translate(608.3062,502.2275)">
          <path
             d="m 0,0 c 0,-4.029 1.972,-7.072 5.187,-7.072 3.001,0 5.101,2.957 5.101,7.159 0,3.258 -1.457,6.986 -5.059,6.986 C 1.5,7.073 0,3.472 0,0 m 15.732,0.216 c 0,-7.674 -5.401,-11.104 -10.716,-11.104 -5.916,0 -10.46,4.073 -10.46,10.76 0,6.858 4.501,11.061 10.802,11.061 6.216,0 10.374,-4.373 10.374,-10.717"
             style="fill:#f7931d;fill-opacity:1;fill-rule:nonzero;stroke:none"
             id="path3775"
             inkscape:connector-curvature="0" />
        </g>
        <path
           d="m 628.367,522.247 h 5.316 v -30.436 h -5.316 z"
           style="fill:#f7931d;fill-opacity:1;fill-rule:nonzero;stroke:none"
           id="path3777"
           inkscape:connector-curvature="0" />
        <g
           id="g3779"
           transform="translate(652.2856,504.457)">
          <path
             d="M 0,0 C 0.043,1.929 -0.814,5.101 -4.33,5.101 -7.587,5.101 -8.959,2.143 -9.173,0 Z m -9.173,-3.687 c 0.129,-3.772 3.087,-5.401 6.43,-5.401 2.443,0 4.201,0.343 5.787,0.943 l 0.771,-3.645 c -1.8,-0.727 -4.287,-1.285 -7.287,-1.285 -6.773,0 -10.76,4.159 -10.76,10.546 0,5.787 3.516,11.232 10.203,11.232 6.773,0 9.002,-5.574 9.002,-10.16 0,-0.987 -0.086,-1.758 -0.172,-2.23 z"
             style="fill:#f7931d;fill-opacity:1;fill-rule:nonzero;stroke:none"
             id="path3781"
             inkscape:connector-curvature="0" />
        </g>
        <g
           id="g3783"
           transform="translate(666.7744,500.5566)">
          <path
             d="m 0,0 c 0,-0.515 0.042,-0.985 0.171,-1.458 0.515,-2.144 2.401,-3.687 4.63,-3.687 3.344,0 5.316,2.787 5.316,6.903 0,3.685 -1.801,6.686 -5.187,6.686 C 2.743,8.444 0.728,6.859 0.214,4.543 0.085,4.114 0,3.643 0,3.215 Z m -5.273,5.187 c 0,2.743 -0.085,4.971 -0.172,6.944 h 4.631 l 0.256,-3.215 h 0.086 c 1.543,2.357 3.987,3.688 7.159,3.688 4.801,0 8.788,-4.116 8.788,-10.632 0,-7.545 -4.759,-11.189 -9.517,-11.189 -2.615,0 -4.801,1.114 -5.873,2.786 H 0 v -10.802 h -5.273 z"
             style="fill:#f7931d;fill-opacity:1;fill-rule:nonzero;stroke:none"
             id="path3785"
             inkscape:connector-curvature="0" />
        </g>
        <path
           d="m 686.578,522.247 h 5.315 v -30.436 h -5.315 z"
           style="fill:#f7931d;fill-opacity:1;fill-rule:nonzero;stroke:none"
           id="path3787"
           inkscape:connector-curvature="0" />
        <g
           id="g3789"
           transform="translate(708.6533,502.0127)">
          <path
             d="m 0,0 c -3.729,0.087 -7.288,-0.728 -7.288,-3.9 0,-2.058 1.33,-3 3.001,-3 2.101,0 3.644,1.371 4.116,2.872 C -0.043,-3.644 0,-3.215 0,-2.872 Z M 0.686,-10.201 0.343,-7.887 H 0.214 c -1.286,-1.629 -3.472,-2.786 -6.172,-2.786 -4.202,0 -6.56,3.044 -6.56,6.215 0,5.272 4.673,7.932 12.39,7.889 v 0.342 c 0,1.373 -0.558,3.643 -4.245,3.643 -2.058,0 -4.2,-0.642 -5.615,-1.542 l -1.029,3.43 c 1.543,0.942 4.244,1.843 7.544,1.843 6.688,0 8.618,-4.244 8.618,-8.789 v -7.545 c 0,-1.885 0.084,-3.729 0.299,-5.014 z"
             style="fill:#f7931d;fill-opacity:1;fill-rule:nonzero;stroke:none"
             id="path3791"
             inkscape:connector-curvature="0" />
        </g>
        <g
           id="g3793"
           transform="translate(722.2412,512.6875)">
          <path
             d="m 0,0 3.773,-11.188 c 0.429,-1.287 0.857,-2.872 1.158,-4.074 h 0.128 c 0.343,1.202 0.729,2.744 1.114,4.116 L 9.432,0 H 15.09 L 9.86,-14.232 c -2.872,-7.801 -4.801,-11.274 -7.288,-13.416 -2.057,-1.844 -4.2,-2.531 -5.529,-2.703 l -1.201,4.458 c 0.901,0.215 2.015,0.687 3.087,1.458 0.986,0.644 2.143,1.886 2.872,3.301 0.214,0.387 0.343,0.687 0.343,0.944 0,0.213 -0.043,0.513 -0.3,1.029 L -5.787,0 Z"
             style="fill:#f7931d;fill-opacity:1;fill-rule:nonzero;stroke:none"
             id="path3795"
             inkscape:connector-curvature="0" />
        </g>
        <g
           id="g3797"
           transform="translate(752.7202,504.457)">
          <path
             d="M 0,0 C 0.042,1.929 -0.814,5.101 -4.33,5.101 -7.587,5.101 -8.959,2.143 -9.173,0 Z m -9.173,-3.687 c 0.128,-3.772 3.086,-5.401 6.43,-5.401 2.443,0 4.201,0.343 5.786,0.943 l 0.772,-3.645 c -1.8,-0.727 -4.286,-1.285 -7.287,-1.285 -6.773,0 -10.76,4.159 -10.76,10.546 0,5.787 3.516,11.232 10.203,11.232 6.772,0 9.002,-5.574 9.002,-10.16 0,-0.987 -0.086,-1.758 -0.172,-2.23 z"
             style="fill:#f7931d;fill-opacity:1;fill-rule:nonzero;stroke:none"
             id="path3799"
             inkscape:connector-curvature="0" />
        </g>
        <g
           id="g3801"
           transform="translate(761.936,505.957)">
          <path
             d="M 0,0 C 0,2.83 -0.042,4.844 -0.172,6.73 H 4.416 L 4.587,2.745 h 0.171 c 1.029,2.957 3.473,4.458 5.701,4.458 0.515,0 0.815,-0.044 1.244,-0.129 V 2.101 C 11.274,2.186 10.802,2.272 10.159,2.272 7.63,2.272 5.916,0.643 5.444,-1.714 5.358,-2.186 5.273,-2.743 5.273,-3.343 V -14.146 H 0 Z"
             style="fill:#f7931d;fill-opacity:1;fill-rule:nonzero;stroke:none"
             id="path3803"
             inkscape:connector-curvature="0" />
        </g>
        <g
           id="g3805"
           transform="translate(781.0107,521.1748)">
          <path
             d="M 0,0 -0.858,-11.016 H -3.987 L -4.844,0 Z"
             style="fill:#f7931d;fill-opacity:1;fill-rule:nonzero;stroke:none"
             id="path3807"
             inkscape:connector-curvature="0" />
        </g>
        <g
           id="g3809"
           transform="translate(785.4258,496.6553)">
          <path
             d="m 0,0 c 1.2,-0.729 3.473,-1.5 5.358,-1.5 2.315,0 3.344,0.942 3.344,2.313 0,1.416 -0.857,2.144 -3.43,3.044 -4.072,1.415 -5.787,3.645 -5.744,6.087 0,3.689 3.044,6.561 7.888,6.561 2.315,0 4.33,-0.602 5.53,-1.243 L 11.917,11.53 c -0.9,0.517 -2.572,1.202 -4.415,1.202 -1.886,0 -2.916,-0.901 -2.916,-2.186 0,-1.329 0.986,-1.973 3.644,-2.915 3.773,-1.372 5.53,-3.302 5.573,-6.388 0,-3.772 -2.958,-6.516 -8.488,-6.516 -2.528,0 -4.8,0.599 -6.344,1.458 z"
             style="fill:#f7931d;fill-opacity:1;fill-rule:nonzero;stroke:none"
             id="path3811"
             inkscape:connector-curvature="0" />
        </g>
        <g
           id="g3813"
           transform="translate(813.0312,491.8115)">
          <path
             d="m 0,0 v 16.933 h -2.829 v 3.943 H 0 v 0.9 c 0,2.702 0.728,5.402 2.528,7.117 1.544,1.457 3.645,2.013 5.446,2.013 1.414,0 2.528,-0.213 3.385,-0.513 L 10.974,26.32 c -0.558,0.214 -1.286,0.386 -2.231,0.386 -2.613,0 -3.514,-2.185 -3.514,-4.758 V 20.876 H 9.816 V 16.933 H 5.271 V 0 Z"
             style="fill:#414142;fill-opacity:1;fill-rule:nonzero;stroke:none"
             id="path3815"
             inkscape:connector-curvature="0" />
        </g>
        <g
           id="g3817"
           transform="translate(829.749,502.2275)">
          <path
             d="m 0,0 c 0,-4.029 1.972,-7.072 5.187,-7.072 3,0 5.1,2.957 5.1,7.159 0,3.258 -1.457,6.986 -5.058,6.986 C 1.5,7.073 0,3.472 0,0 m 15.731,0.216 c 0,-7.674 -5.401,-11.104 -10.715,-11.104 -5.916,0 -10.461,4.073 -10.461,10.76 0,6.858 4.502,11.061 10.803,11.061 6.215,0 10.373,-4.373 10.373,-10.717"
             style="fill:#414142;fill-opacity:1;fill-rule:nonzero;stroke:none"
             id="path3819"
             inkscape:connector-curvature="0" />
        </g>
        <g
           id="g3821"
           transform="translate(849.8096,505.957)">
          <path
             d="M 0,0 C 0,2.83 -0.043,4.844 -0.172,6.73 H 4.415 L 4.587,2.745 h 0.171 c 1.028,2.957 3.471,4.458 5.702,4.458 0.514,0 0.813,-0.044 1.243,-0.129 V 2.101 C 11.273,2.186 10.802,2.272 10.159,2.272 7.629,2.272 5.916,0.643 5.443,-1.714 5.358,-2.186 5.272,-2.743 5.272,-3.343 V -14.146 H 0 Z"
             style="fill:#414142;fill-opacity:1;fill-rule:nonzero;stroke:none"
             id="path3823"
             inkscape:connector-curvature="0" />
        </g>
        <g
           id="g3825"
           transform="translate(883.7588,498.0703)">
          <path
             d="m 0,0 c 0,-2.487 0.086,-4.544 0.173,-6.259 h -4.631 l -0.258,3.172 h -0.086 c -0.899,-1.5 -2.957,-3.643 -6.685,-3.643 -3.817,0 -7.288,2.271 -7.288,9.086 v 12.261 h 5.272 V 3.257 c 0,-3.472 1.113,-5.701 3.9,-5.701 2.102,0 3.473,1.501 4.03,2.829 0.172,0.471 0.301,1.029 0.301,1.629 V 14.617 H 0 Z"
             style="fill:#414142;fill-opacity:1;fill-rule:nonzero;stroke:none"
             id="path3827"
             inkscape:connector-curvature="0" />
        </g>
        <g
           id="g3829"
           transform="translate(889.459,506.4717)">
          <path
             d="M 0,0 C 0,2.4 -0.043,4.416 -0.172,6.216 H 4.372 L 4.588,3.13 h 0.128 c 1.028,1.629 2.915,3.558 6.43,3.558 2.743,0 4.887,-1.544 5.788,-3.859 h 0.085 c 0.728,1.157 1.585,2.016 2.571,2.616 1.158,0.814 2.486,1.243 4.201,1.243 3.473,0 6.988,-2.359 6.988,-9.045 V -14.66 h -5.144 v 11.531 c 0,3.472 -1.2,5.529 -3.73,5.529 -1.8,0 -3.129,-1.286 -3.686,-2.786 -0.129,-0.513 -0.257,-1.157 -0.257,-1.759 V -14.66 H 12.818 V -2.571 C 12.818,0.343 11.66,2.4 9.217,2.4 7.244,2.4 5.915,0.857 5.443,-0.6 5.229,-1.114 5.145,-1.715 5.145,-2.314 V -14.66 H 0 Z"
             style="fill:#414142;fill-opacity:1;fill-rule:nonzero;stroke:none"
             id="path3831"
             inkscape:connector-curvature="0" />
        </g>
        <g
           id="g3833"
           transform="translate(934.4238,496.6553)">
          <path
             d="m 0,0 c 1.2,-0.729 3.474,-1.5 5.358,-1.5 2.317,0 3.345,0.942 3.345,2.313 0,1.416 -0.857,2.144 -3.43,3.044 -4.073,1.415 -5.787,3.645 -5.744,6.087 0,3.689 3.044,6.561 7.888,6.561 2.315,0 4.329,-0.602 5.53,-1.243 L 11.919,11.53 c -0.901,0.517 -2.572,1.202 -4.417,1.202 -1.886,0 -2.914,-0.901 -2.914,-2.186 0,-1.329 0.985,-1.973 3.642,-2.915 3.774,-1.372 5.532,-3.302 5.574,-6.388 0,-3.772 -2.957,-6.516 -8.488,-6.516 -2.529,0 -4.8,0.599 -6.343,1.458 z"
             style="fill:#414142;fill-opacity:1;fill-rule:nonzero;stroke:none"
             id="path3835"
             inkscape:connector-curvature="0" />
        </g>
        <g
           id="g3837"
           transform="translate(956.6719,502.2275)">
          <path
             d="m 0,0 c 0,-4.029 1.973,-7.072 5.187,-7.072 3.001,0 5.101,2.957 5.101,7.159 0,3.258 -1.458,6.986 -5.059,6.986 C 1.5,7.073 0,3.472 0,0 m 15.732,0.216 c 0,-7.674 -5.402,-11.104 -10.715,-11.104 -5.916,0 -10.461,4.073 -10.461,10.76 0,6.858 4.501,11.061 10.803,11.061 6.215,0 10.373,-4.373 10.373,-10.717"
             style="fill:#414142;fill-opacity:1;fill-rule:nonzero;stroke:none"
             id="path3839"
             inkscape:connector-curvature="0" />
        </g>
        <g
           id="g3841"
           transform="translate(977.333,491.8115)">
          <path
             d="m 0,0 v 16.933 h -2.831 v 3.943 H 0 v 0.9 c 0,2.702 0.729,5.402 2.528,7.117 1.545,1.457 3.644,2.013 5.445,2.013 1.415,0 2.529,-0.213 3.386,-0.513 L 10.974,26.32 c -0.557,0.214 -1.286,0.386 -2.23,0.386 -2.614,0 -3.515,-2.185 -3.515,-4.758 V 20.876 H 9.816 V 16.933 H 5.272 V 0 Z"
             style="fill:#414142;fill-opacity:1;fill-rule:nonzero;stroke:none"
             id="path3843"
             inkscape:connector-curvature="0" />
        </g>
        <g
           id="g3845"
           transform="translate(997.0068,518.6455)">
          <path
             d="M 0,0 V -5.958 H 5.016 V -9.901 H 0 v -9.217 c 0,-2.529 0.687,-3.859 2.701,-3.859 0.901,0 1.586,0.128 2.058,0.257 l 0.086,-4.028 c -0.773,-0.301 -2.144,-0.516 -3.816,-0.516 -1.928,0 -3.558,0.644 -4.544,1.715 -1.115,1.2 -1.628,3.087 -1.628,5.83 v 9.818 h -3.002 v 3.943 h 3.002 v 4.715 z"
             style="fill:#414142;fill-opacity:1;fill-rule:nonzero;stroke:none"
             id="path3847"
             inkscape:connector-curvature="0" />
        </g>
        <g
           id="g3849"
           transform="translate(1009.4805,512.6875)">
          <path
             d="m 0,0 2.187,-9.474 c 0.471,-2.229 0.943,-4.502 1.329,-6.772 h 0.085 c 0.428,2.27 1.115,4.587 1.714,6.728 L 8.017,0 h 4.287 l 2.614,-9.26 c 0.644,-2.443 1.2,-4.716 1.672,-6.986 h 0.086 c 0.343,2.27 0.815,4.543 1.371,6.986 L 20.362,0 h 5.187 l -6.558,-20.876 h -4.887 l -2.487,8.486 c -0.643,2.187 -1.114,4.16 -1.587,6.689 H 9.946 C 9.518,-8.273 8.961,-10.331 8.36,-12.39 L 5.701,-20.876 H 0.771 L -5.401,0 Z"
             style="fill:#414142;fill-opacity:1;fill-rule:nonzero;stroke:none"
             id="path3851"
             inkscape:connector-curvature="0" />
        </g>
        <g
           id="g3853"
           transform="translate(1049.2178,502.0127)">
          <path
             d="m 0,0 c -3.729,0.087 -7.288,-0.728 -7.288,-3.9 0,-2.058 1.328,-3 3.001,-3 2.1,0 3.643,1.371 4.115,2.872 C -0.043,-3.644 0,-3.215 0,-2.872 Z M 0.687,-10.201 0.342,-7.887 H 0.214 c -1.286,-1.629 -3.473,-2.786 -6.174,-2.786 -4.199,0 -6.558,3.044 -6.558,6.215 0,5.272 4.673,7.932 12.389,7.889 v 0.342 c 0,1.373 -0.556,3.643 -4.244,3.643 -2.057,0 -4.202,-0.642 -5.616,-1.542 l -1.029,3.43 c 1.544,0.942 4.246,1.843 7.545,1.843 6.688,0 8.617,-4.244 8.617,-8.789 v -7.545 c 0,-1.885 0.085,-3.729 0.299,-5.014 z"
             style="fill:#414142;fill-opacity:1;fill-rule:nonzero;stroke:none"
             id="path3855"
             inkscape:connector-curvature="0" />
        </g>
        <g
           id="g3857"
           transform="translate(1059.9346,505.957)">
          <path
             d="M 0,0 C 0,2.83 -0.044,4.844 -0.173,6.73 H 4.414 L 4.586,2.745 h 0.172 c 1.028,2.957 3.472,4.458 5.7,4.458 0.516,0 0.815,-0.044 1.244,-0.129 V 2.101 C 11.273,2.186 10.802,2.272 10.16,2.272 7.63,2.272 5.915,0.643 5.443,-1.714 5.358,-2.186 5.272,-2.743 5.272,-3.343 V -14.146 H 0 Z"
             style="fill:#414142;fill-opacity:1;fill-rule:nonzero;stroke:none"
             id="path3859"
             inkscape:connector-curvature="0" />
        </g>
        <g
           id="g3861"
           transform="translate(1087.7119,504.457)">
          <path
             d="M 0,0 C 0.043,1.929 -0.816,5.101 -4.329,5.101 -7.588,5.101 -8.96,2.143 -9.175,0 Z m -9.175,-3.687 c 0.128,-3.772 3.087,-5.401 6.431,-5.401 2.444,0 4.2,0.343 5.787,0.943 l 0.771,-3.645 c -1.8,-0.727 -4.287,-1.285 -7.288,-1.285 -6.772,0 -10.759,4.159 -10.759,10.546 0,5.787 3.515,11.232 10.202,11.232 6.774,0 9.003,-5.574 9.003,-10.16 0,-0.987 -0.086,-1.758 -0.171,-2.23 z"
             style="fill:#414142;fill-opacity:1;fill-rule:nonzero;stroke:none"
             id="path3863"
             inkscape:connector-curvature="0" />
        </g>
      </g>
    </g>
  </g>
</svg>
